<mxfile host="65bd71144e">
    <diagram id="sKfvh-1BNVT6LNfuZ2vX" name="Page-1">
        <mxGraphModel dx="1111" dy="709" grid="1" gridSize="10" guides="1" tooltips="1" connect="1" arrows="1" fold="1" page="1" pageScale="1" pageWidth="827" pageHeight="1169" math="0" shadow="0">
            <root>
                <mxCell id="0"/>
                <mxCell id="1" parent="0"/>
                <mxCell id="6" value="" style="group" parent="1" vertex="1" connectable="0">
                    <mxGeometry x="10" y="100" width="130" height="185.26" as="geometry"/>
                </mxCell>
                <mxCell id="3" value="USER" style="rounded=0;whiteSpace=wrap;html=1;" parent="6" vertex="1">
                    <mxGeometry width="130" height="25.263157894736842" as="geometry"/>
                </mxCell>
                <mxCell id="5" value="username&lt;br&gt;mail&lt;br&gt;password&lt;br&gt;roles&lt;br&gt;status&lt;br&gt;birthday&lt;br&gt;filename&lt;br&gt;activation_token" style="whiteSpace=wrap;html=1;aspect=fixed;" parent="6" vertex="1">
                    <mxGeometry y="25.26" width="130" height="130" as="geometry"/>
                </mxCell>
                <mxCell id="7" value="" style="group" parent="1" vertex="1" connectable="0">
                    <mxGeometry x="370" y="100" width="120" height="190" as="geometry"/>
                </mxCell>
                <mxCell id="8" value="GROUP" style="rounded=0;whiteSpace=wrap;html=1;" parent="7" vertex="1">
                    <mxGeometry width="120" height="30" as="geometry"/>
                </mxCell>
                <mxCell id="9" value="title&lt;br&gt;description&lt;br&gt;private&lt;br&gt;admin" style="whiteSpace=wrap;html=1;aspect=fixed;" parent="7" vertex="1">
                    <mxGeometry y="30" width="120" height="120" as="geometry"/>
                </mxCell>
                <mxCell id="10" value="Appartenir" style="rounded=1;whiteSpace=wrap;html=1;" parent="1" vertex="1">
                    <mxGeometry x="380" y="330" width="100" height="30" as="geometry"/>
                </mxCell>
                <mxCell id="11" value="" style="group" parent="1" vertex="1" connectable="0">
                    <mxGeometry x="370" y="400" width="120" height="210" as="geometry"/>
                </mxCell>
                <mxCell id="12" value="MESSAGE" style="rounded=0;whiteSpace=wrap;html=1;" parent="11" vertex="1">
                    <mxGeometry y="60" width="120" height="30" as="geometry"/>
                </mxCell>
                <mxCell id="13" value="user_id&lt;br&gt;group_id&lt;br&gt;text&lt;br&gt;mine" style="whiteSpace=wrap;html=1;aspect=fixed;" parent="11" vertex="1">
                    <mxGeometry y="90" width="120" height="120" as="geometry"/>
                </mxCell>
                <mxCell id="14" value="" style="endArrow=none;html=1;entryX=0.5;entryY=1;entryDx=0;entryDy=0;exitX=0.5;exitY=0;exitDx=0;exitDy=0;" parent="1" source="10" target="9" edge="1">
                    <mxGeometry width="50" height="50" relative="1" as="geometry">
                        <mxPoint x="320" y="350" as="sourcePoint"/>
                        <mxPoint x="370" y="300" as="targetPoint"/>
                    </mxGeometry>
                </mxCell>
                <mxCell id="27" value="0, N" style="edgeLabel;html=1;align=center;verticalAlign=middle;resizable=0;points=[];" parent="14" vertex="1" connectable="0">
                    <mxGeometry x="0.6905" y="-2" relative="1" as="geometry">
                        <mxPoint x="-2" y="1" as="offset"/>
                    </mxGeometry>
                </mxCell>
                <mxCell id="15" value="" style="endArrow=none;html=1;entryX=0.5;entryY=1;entryDx=0;entryDy=0;exitX=0.5;exitY=0;exitDx=0;exitDy=0;" parent="1" source="12" target="10" edge="1">
                    <mxGeometry width="50" height="50" relative="1" as="geometry">
                        <mxPoint x="320" y="350" as="sourcePoint"/>
                        <mxPoint x="370" y="300" as="targetPoint"/>
                    </mxGeometry>
                </mxCell>
                <mxCell id="21" value="1,1" style="edgeLabel;html=1;align=center;verticalAlign=middle;resizable=0;points=[];" parent="15" vertex="1" connectable="0">
                    <mxGeometry x="-0.7286" y="-1" relative="1" as="geometry">
                        <mxPoint as="offset"/>
                    </mxGeometry>
                </mxCell>
                <mxCell id="22" value="Creer" style="rounded=1;whiteSpace=wrap;html=1;" parent="1" vertex="1">
                    <mxGeometry x="220" y="175.39" width="70" height="29.74" as="geometry"/>
                </mxCell>
                <mxCell id="23" value="" style="endArrow=none;html=1;entryX=0;entryY=0.5;entryDx=0;entryDy=0;exitX=1;exitY=0.5;exitDx=0;exitDy=0;" parent="1" source="22" target="9" edge="1">
                    <mxGeometry width="50" height="50" relative="1" as="geometry">
                        <mxPoint x="380" y="320" as="sourcePoint"/>
                        <mxPoint x="430" y="270" as="targetPoint"/>
                    </mxGeometry>
                </mxCell>
                <mxCell id="26" value="1, 1" style="edgeLabel;html=1;align=center;verticalAlign=middle;resizable=0;points=[];" parent="23" vertex="1" connectable="0">
                    <mxGeometry x="0.7477" relative="1" as="geometry">
                        <mxPoint x="-9" y="1" as="offset"/>
                    </mxGeometry>
                </mxCell>
                <mxCell id="24" value="" style="endArrow=none;html=1;entryX=0;entryY=0.5;entryDx=0;entryDy=0;exitX=1;exitY=0.5;exitDx=0;exitDy=0;" parent="1" source="5" target="22" edge="1">
                    <mxGeometry width="50" height="50" relative="1" as="geometry">
                        <mxPoint x="380" y="320" as="sourcePoint"/>
                        <mxPoint x="430" y="270" as="targetPoint"/>
                    </mxGeometry>
                </mxCell>
                <mxCell id="25" value="0, N" style="edgeLabel;html=1;align=center;verticalAlign=middle;resizable=0;points=[];" parent="24" vertex="1" connectable="0">
                    <mxGeometry x="-0.6702" y="-2" relative="1" as="geometry">
                        <mxPoint y="-2" as="offset"/>
                    </mxGeometry>
                </mxCell>
                <mxCell id="28" value="Le groupe peut avoir de&amp;nbsp; min :0, max N messages&amp;nbsp;" style="text;html=1;align=center;verticalAlign=middle;resizable=0;points=[];autosize=1;strokeColor=none;" parent="1" vertex="1">
                    <mxGeometry x="450" y="280" width="280" height="20" as="geometry"/>
                </mxCell>
                <mxCell id="29" value="Au mini le message appartient à 1 groupe" style="text;html=1;align=center;verticalAlign=middle;resizable=0;points=[];autosize=1;strokeColor=none;" parent="1" vertex="1">
                    <mxGeometry x="440" y="410" width="240" height="20" as="geometry"/>
                </mxCell>
                <mxCell id="30" value="Un message n'est dispo que sur 1 seul groupe" style="text;html=1;align=center;verticalAlign=middle;resizable=0;points=[];autosize=1;strokeColor=none;" parent="1" vertex="1">
                    <mxGeometry x="440" y="430" width="260" height="20" as="geometry"/>
                </mxCell>
                <mxCell id="31" value="L'utilisateur peut créer&amp;nbsp;" style="text;html=1;align=center;verticalAlign=middle;resizable=0;points=[];autosize=1;strokeColor=none;" parent="1" vertex="1">
                    <mxGeometry x="10" y="280" width="140" height="20" as="geometry"/>
                </mxCell>
                <mxCell id="32" value="Le groupe appartient à un seul admin" style="text;html=1;align=center;verticalAlign=middle;resizable=0;points=[];autosize=1;strokeColor=none;" parent="1" vertex="1">
                    <mxGeometry x="274" y="50" width="210" height="20" as="geometry"/>
                </mxCell>
                <mxCell id="34" value="Un groupe n'est dispo que si un admin est associé" style="text;html=1;align=center;verticalAlign=middle;resizable=0;points=[];autosize=1;strokeColor=none;" parent="1" vertex="1">
                    <mxGeometry x="274" y="30" width="280" height="20" as="geometry"/>
                </mxCell>
                <mxCell id="35" value="min 0, max : N groupes" style="text;html=1;align=center;verticalAlign=middle;resizable=0;points=[];autosize=1;strokeColor=none;" parent="1" vertex="1">
                    <mxGeometry x="134" y="280" width="140" height="20" as="geometry"/>
                </mxCell>
                <mxCell id="39" value="Appartenir" style="rounded=1;whiteSpace=wrap;html=1;" parent="1" vertex="1">
                    <mxGeometry x="540" y="170" width="80" height="40" as="geometry"/>
                </mxCell>
                <mxCell id="40" value="" style="endArrow=none;html=1;entryX=0;entryY=0.5;entryDx=0;entryDy=0;exitX=1;exitY=0.5;exitDx=0;exitDy=0;" parent="1" source="9" target="39" edge="1">
                    <mxGeometry width="50" height="50" relative="1" as="geometry">
                        <mxPoint x="500" y="200" as="sourcePoint"/>
                        <mxPoint x="520" y="290" as="targetPoint"/>
                    </mxGeometry>
                </mxCell>
                <mxCell id="45" value="0, N" style="edgeLabel;html=1;align=center;verticalAlign=middle;resizable=0;points=[];" parent="40" vertex="1" connectable="0">
                    <mxGeometry x="-0.4857" y="1" relative="1" as="geometry">
                        <mxPoint x="1" y="1" as="offset"/>
                    </mxGeometry>
                </mxCell>
                <mxCell id="42" value="" style="endArrow=none;html=1;entryX=1;entryY=0.5;entryDx=0;entryDy=0;exitX=0;exitY=0.5;exitDx=0;exitDy=0;" parent="1" source="37" target="39" edge="1">
                    <mxGeometry width="50" height="50" relative="1" as="geometry">
                        <mxPoint x="470" y="340" as="sourcePoint"/>
                        <mxPoint x="520" y="290" as="targetPoint"/>
                    </mxGeometry>
                </mxCell>
                <mxCell id="44" value="1,N" style="edgeLabel;html=1;align=center;verticalAlign=middle;resizable=0;points=[];" parent="42" vertex="1" connectable="0">
                    <mxGeometry x="-0.6875" relative="1" as="geometry">
                        <mxPoint x="-12" as="offset"/>
                    </mxGeometry>
                </mxCell>
                <mxCell id="43" value="" style="group" parent="1" vertex="1" connectable="0">
                    <mxGeometry x="670" y="100" width="120" height="150" as="geometry"/>
                </mxCell>
                <mxCell id="36" value="MEMBERS" style="rounded=0;whiteSpace=wrap;html=1;" parent="43" vertex="1">
                    <mxGeometry width="120" height="30" as="geometry"/>
                </mxCell>
                <mxCell id="37" value="user_id&lt;br&gt;group_id&lt;br&gt;access&lt;br&gt;roles" style="whiteSpace=wrap;html=1;aspect=fixed;" parent="43" vertex="1">
                    <mxGeometry y="30" width="120" height="120" as="geometry"/>
                </mxCell>
                <mxCell id="46" value="Un groupe peut avoir 0,N membres associés" style="text;html=1;align=center;verticalAlign=middle;resizable=0;points=[];autosize=1;strokeColor=none;" parent="1" vertex="1">
                    <mxGeometry x="274" y="70" width="250" height="20" as="geometry"/>
                </mxCell>
            </root>
        </mxGraphModel>
    </diagram>
</mxfile>